# xmcd
#
# Track frame offsets: 
#        150
#        13677
#        30018
#        44684
#        56860
#        71213
#        86429
#        99888
#        113388
#        129209
#        142404
#        159285
#        174338
#        186465
#        200959
#        215484
#        229688
#        246308
#        263127
#        275035
#        291621
#
# Disc length: 4068 seconds
#
# Revision: 0
# Processed by: cddbd v1.5.2PL0 Copyright (c) Steve Scherf et al.
# Submitted via: ExactAudioCopy v0.99pb4
#
DISCID=3e0fe215
DTITLE=Various Artist - 10 Jaar Schlagerfestival 2015 - CD 1
DYEAR=2015
DGENRE=Chanson
TTITLE0=Laura Lynn - We Feesten Heel De Nacht
TTITLE1=Christoff - In De Zevende Hemel
TTITLE2=De Romeo's - Deze Is Voor Julia
TTITLE3=Frans Bauer - Ratatadadada
TTITLE4=Willy Sommers - Stapelgek
TTITLE5=Lindsay - Bella Romantica
TTITLE6=Jo Vally - We Dansen De Nacht Voorbij
TTITLE7=Luc Steeno - Dicht Bij Jou
TTITLE8=Sergio - Alleen Bij Jou
TTITLE9=Maarten Cox - Leuker Met Twee
TTITLE10=Elke Taelman - Zolang Er Dromen Zijn
TTITLE11=Gene Thomas - Fata Morgana
TTITLE12=Paul Severs - Niet Te Doen
TTITLE13=Nicole and Hugo - Muziek Is Ons Leven
TTITLE14=Yves Segers - Loop Naar De Maan
TTITLE15=Steve Tielens - Wat Heb Jij Een Lekker Lijf!
TTITLE16=Danny Fabry - Waarom Ik En Niet Een Ander
TTITLE17=Bart Kaëll - Het Is Feest!
TTITLE18=Matthias Lens - Reine De Musette
TTITLE19=Christoff and Lindsay - Kom In Mijn Armen
TTITLE20=The Lynn Sisters - Soldiers Of Love
EXTD=
EXTT0=
EXTT1=
EXTT2=
EXTT3=
EXTT4=
EXTT5=
EXTT6=
EXTT7=
EXTT8=
EXTT9=
EXTT10=
EXTT11=
EXTT12=
EXTT13=
EXTT14=
EXTT15=
EXTT16=
EXTT17=
EXTT18=
EXTT19=
EXTT20=
PLAYORDER=
